<svg xmlns="http://www.w3.org/2000/svg" viewBox="0 0 148.43 225.09"><defs><style>.cls-1{fill:#fff;}</style></defs><title>Asset 1</title><g id="Layer_2" data-name="Layer 2"><g id="Layer_1-2" data-name="Layer 1"><path class="cls-1" d="M130,18.29a17.88,17.88,0,0,0-1.59-7.06,11.35,11.35,0,0,0-4.65-5,17.66,17.66,0,0,0-6.73-2,34.46,34.46,0,0,0-7.32,0A72,72,0,0,0,95.05,7.49a130.07,130.07,0,0,0-14.12,5.56A191.63,191.63,0,0,0,54.44,28,169.62,169.62,0,0,0,30.89,46.9,101.76,101.76,0,0,0,21,57.84a51.16,51.16,0,0,0-7.13,12c-1.65,4.07-2.12,8.08-1.09,11.1a11.19,11.19,0,0,0,2.57,4.2,19.88,19.88,0,0,0,4.6,3.5,48,48,0,0,0,12.62,4.69A106.84,106.84,0,0,0,46.9,95.57c4.9.49,9.88.74,14.89.83q3.76.07,7.54,0l7.77-.11c5.32,0,10.67,0,16.07.35a157.7,157.7,0,0,1,16.39,1.71,80.31,80.31,0,0,1,16.89,4.48,46.12,46.12,0,0,1,8.62,4.48,32.6,32.6,0,0,1,8,7.53,27.64,27.64,0,0,1,4.81,11.1,28.27,28.27,0,0,1,.5,5.88c0,1-.08,1.89-.15,2.83s-.21,1.83-.39,2.69a43,43,0,0,1-3,9.64,61.65,61.65,0,0,1-4.38,8.14,94.52,94.52,0,0,1-10.63,13.59,144.36,144.36,0,0,1-12,11.42c-4.16,3.53-8.43,6.85-12.79,10s-8.83,6.12-13.39,8.92A231.22,231.22,0,0,1,63.34,214c-9.81,4.23-19.93,7.9-30.66,9.94a67.06,67.06,0,0,1-8.2,1.05,36.13,36.13,0,0,1-8.53-.34,19.57,19.57,0,0,1-4.35-1.23,12.11,12.11,0,0,1-4-2.62,9.08,9.08,0,0,1-2.31-4.16,11.3,11.3,0,0,1-.19-4.35h2a10.07,10.07,0,0,0,1.07,3.27,5.51,5.51,0,0,0,2.08,2.12,10.73,10.73,0,0,0,6.1,1.07,35.06,35.06,0,0,0,6.93-1.27,67.24,67.24,0,0,0,6.93-2.34,178.21,178.21,0,0,0,26.62-13.7c8.57-5.25,16.9-10.92,24.89-16.95,4-3,7.92-6.1,11.71-9.32s7.51-6.46,11-9.86,6.92-6.86,10-10.42A91.08,91.08,0,0,0,122.88,144a34.92,34.92,0,0,0,4.84-10.55,11.92,11.92,0,0,0,.32-4,7.37,7.37,0,0,0-1.1-3.11,12.76,12.76,0,0,0-3-3.25,27.63,27.63,0,0,0-5-3,61.93,61.93,0,0,0-12.81-4.3,130.71,130.71,0,0,0-14.36-2.38c-4.91-.54-9.9-.86-14.92-1.06l-7.75-.22c-2.65-.1-5.31-.22-8-.38-5.33-.33-10.67-.84-16-1.61A121.1,121.1,0,0,1,29,106.79a60.8,60.8,0,0,1-16-6.89,32.4,32.4,0,0,1-7.32-6.35A23.82,23.82,0,0,1,.76,84.28,24.54,24.54,0,0,1,.35,74.05a34.38,34.38,0,0,1,2.81-8.89A62.67,62.67,0,0,1,12.6,51,114.37,114.37,0,0,1,24.13,39.52a179.46,179.46,0,0,1,26-18.41A189.23,189.23,0,0,1,78.5,7.27,135.53,135.53,0,0,1,93.61,2.44,75.24,75.24,0,0,1,109.42,0a38.6,38.6,0,0,1,8.15.56,21,21,0,0,1,7.83,3,14.23,14.23,0,0,1,5.33,6.58A20.3,20.3,0,0,1,132,18.29Z"/></g></g></svg>